<svg xmlns="http://www.w3.org/2000/svg" xmlns:xlink="http://www.w3.org/1999/xlink" width="1920" zoomAndPan="magnify" viewBox="0 0 1440 809.999993" height="1080" preserveAspectRatio="xMidYMid meet" version="1.0"><defs><g/><clipPath id="64bef17408"><path d="M 776.402344 357.621094 L 850.074219 357.621094 L 850.074219 431.398438 L 776.402344 431.398438 Z M 776.402344 357.621094 " clip-rule="nonzero"/></clipPath><clipPath id="6634d00858"><path d="M 590 171.050781 L 664 171.050781 L 664 246 L 590 246 Z M 590 171.050781 " clip-rule="nonzero"/></clipPath><clipPath id="07c083d0b8"><path d="M 640.910156 355.085938 L 719.417969 355.085938 L 719.417969 433.550781 L 640.910156 433.550781 Z M 640.910156 355.085938 " clip-rule="nonzero"/></clipPath></defs><rect x="-144" width="1728" fill="#ffffff" y="-80.999999" height="971.999992" fill-opacity="1"/><rect x="-144" width="1728" fill="#ffffff" y="-80.999999" height="971.999992" fill-opacity="1"/><rect x="-144" width="1728" fill="#ffbd59" y="-80.999999" height="971.999992" fill-opacity="1"/><g fill="#ffffff" fill-opacity="1"><g transform="translate(411.559776, 608.154367)"><g><path d="M 34.4375 0 L 12.953125 0 L 12.953125 -102.9375 L 71.953125 -102.9375 L 71.953125 -85.0625 L 34.4375 -85.0625 L 34.4375 -58.515625 L 69.359375 -58.515625 L 69.359375 -40.703125 L 34.4375 -40.703125 Z M 34.4375 0 "/></g></g></g><g fill="#ffffff" fill-opacity="1"><g transform="translate(485.219236, 608.154367)"><g><path d="M 10.34375 -99.0625 C 10.34375 -106.0625 14.238281 -109.5625 22.03125 -109.5625 C 29.832031 -109.5625 33.734375 -106.0625 33.734375 -99.0625 C 33.734375 -95.726562 32.757812 -93.132812 30.8125 -91.28125 C 28.863281 -89.425781 25.9375 -88.5 22.03125 -88.5 C 14.238281 -88.5 10.34375 -92.019531 10.34375 -99.0625 Z M 32.734375 0 L 11.265625 0 L 11.265625 -78.71875 L 32.734375 -78.71875 Z M 32.734375 0 "/></g></g></g><g fill="#ffffff" fill-opacity="1"><g transform="translate(523.744758, 608.154367)"><g><path d="M 43.859375 -64.921875 C 39.304688 -64.921875 35.738281 -63.476562 33.15625 -60.59375 C 30.582031 -57.707031 29.109375 -53.609375 28.734375 -48.296875 L 58.859375 -48.296875 C 58.765625 -53.609375 57.378906 -57.707031 54.703125 -60.59375 C 52.035156 -63.476562 48.421875 -64.921875 43.859375 -64.921875 Z M 46.890625 1.40625 C 34.222656 1.40625 24.320312 -2.085938 17.1875 -9.078125 C 10.050781 -16.078125 6.484375 -25.984375 6.484375 -38.796875 C 6.484375 -51.984375 9.78125 -62.179688 16.375 -69.390625 C 22.96875 -76.597656 32.082031 -80.203125 43.71875 -80.203125 C 54.84375 -80.203125 63.503906 -77.03125 69.703125 -70.6875 C 75.898438 -64.351562 79 -55.601562 79 -44.4375 L 79 -34.015625 L 28.234375 -34.015625 C 28.472656 -27.910156 30.28125 -23.144531 33.65625 -19.71875 C 37.03125 -16.289062 41.769531 -14.578125 47.875 -14.578125 C 52.613281 -14.578125 57.097656 -15.066406 61.328125 -16.046875 C 65.554688 -17.035156 69.96875 -18.609375 74.5625 -20.765625 L 74.5625 -4.15625 C 70.8125 -2.28125 66.800781 -0.882812 62.53125 0.03125 C 58.257812 0.945312 53.046875 1.40625 46.890625 1.40625 Z M 46.890625 1.40625 "/></g></g></g><g fill="#ffffff" fill-opacity="1"><g transform="translate(603.459377, 608.154367)"><g><path d="M 32.734375 0 L 11.265625 0 L 11.265625 -109.5625 L 32.734375 -109.5625 Z M 32.734375 0 "/></g></g></g><g fill="#ffffff" fill-opacity="1"><g transform="translate(641.984899, 608.154367)"><g><path d="M 36.1875 1.40625 C 26.945312 1.40625 19.6875 -2.179688 14.40625 -9.359375 C 9.125 -16.546875 6.484375 -26.5 6.484375 -39.21875 C 6.484375 -52.125 9.171875 -62.179688 14.546875 -69.390625 C 19.921875 -76.597656 27.320312 -80.203125 36.75 -80.203125 C 46.65625 -80.203125 54.210938 -76.351562 59.421875 -68.65625 L 60.125 -68.65625 C 59.050781 -74.519531 58.515625 -79.753906 58.515625 -84.359375 L 58.515625 -109.5625 L 80.0625 -109.5625 L 80.0625 0 L 63.578125 0 L 59.421875 -10.203125 L 58.515625 -10.203125 C 53.628906 -2.460938 46.1875 1.40625 36.1875 1.40625 Z M 43.71875 -15.703125 C 49.21875 -15.703125 53.242188 -17.296875 55.796875 -20.484375 C 58.359375 -23.679688 59.753906 -29.101562 59.984375 -36.75 L 59.984375 -39.078125 C 59.984375 -47.523438 58.679688 -53.578125 56.078125 -57.234375 C 53.472656 -60.898438 49.238281 -62.734375 43.375 -62.734375 C 38.582031 -62.734375 34.859375 -60.703125 32.203125 -56.640625 C 29.554688 -52.585938 28.234375 -46.6875 28.234375 -38.9375 C 28.234375 -31.1875 29.570312 -25.375 32.25 -21.5 C 34.925781 -17.632812 38.75 -15.703125 43.71875 -15.703125 Z M 43.71875 -15.703125 "/></g></g></g><g fill="#ffffff" fill-opacity="1"><g transform="translate(727.754656, 608.154367)"><g><path d="M 54.5 1.40625 C 45.25 1.40625 37.992188 -1.945312 32.734375 -8.65625 L 31.609375 -8.65625 C 32.359375 -2.082031 32.734375 1.71875 32.734375 2.75 L 32.734375 34.640625 L 11.265625 34.640625 L 11.265625 -78.71875 L 28.734375 -78.71875 L 31.75 -68.515625 L 32.734375 -68.515625 C 37.765625 -76.304688 45.207031 -80.203125 55.0625 -80.203125 C 64.351562 -80.203125 71.628906 -76.609375 76.890625 -69.421875 C 82.148438 -62.242188 84.78125 -52.269531 84.78125 -39.5 C 84.78125 -31.09375 83.546875 -23.789062 81.078125 -17.59375 C 78.609375 -11.40625 75.097656 -6.691406 70.546875 -3.453125 C 65.992188 -0.210938 60.644531 1.40625 54.5 1.40625 Z M 48.15625 -63.015625 C 42.851562 -63.015625 38.976562 -61.382812 36.53125 -58.125 C 34.09375 -54.863281 32.828125 -49.476562 32.734375 -41.96875 L 32.734375 -39.640625 C 32.734375 -31.191406 33.988281 -25.132812 36.5 -21.46875 C 39.019531 -17.8125 43 -15.984375 48.4375 -15.984375 C 58.0625 -15.984375 62.875 -23.914062 62.875 -39.78125 C 62.875 -47.53125 61.6875 -53.335938 59.3125 -57.203125 C 56.945312 -61.078125 53.226562 -63.015625 48.15625 -63.015625 Z M 48.15625 -63.015625 "/></g></g></g><g fill="#ffffff" fill-opacity="1"><g transform="translate(813.524393, 608.154367)"><g><path d="M 32.734375 0 L 11.265625 0 L 11.265625 -109.5625 L 32.734375 -109.5625 Z M 32.734375 0 "/></g></g></g><g fill="#ffffff" fill-opacity="1"><g transform="translate(852.049894, 608.154367)"><g><path d="M 61.265625 0 L 57.109375 -10.703125 L 56.546875 -10.703125 C 52.929688 -6.148438 49.207031 -2.992188 45.375 -1.234375 C 41.550781 0.523438 36.566406 1.40625 30.421875 1.40625 C 22.859375 1.40625 16.90625 -0.75 12.5625 -5.0625 C 8.226562 -9.382812 6.0625 -15.535156 6.0625 -23.515625 C 6.0625 -31.867188 8.984375 -38.03125 14.828125 -42 C 20.671875 -45.96875 29.484375 -48.160156 41.265625 -48.578125 L 54.921875 -49 L 54.921875 -52.453125 C 54.921875 -60.429688 50.835938 -64.421875 42.671875 -64.421875 C 36.378906 -64.421875 28.984375 -62.519531 20.484375 -58.71875 L 13.375 -73.234375 C 22.4375 -77.972656 32.484375 -80.34375 43.515625 -80.34375 C 54.078125 -80.34375 62.171875 -78.039062 67.796875 -73.4375 C 73.429688 -68.832031 76.25 -61.835938 76.25 -52.453125 L 76.25 0 Z M 54.921875 -36.46875 L 46.609375 -36.1875 C 40.367188 -36 35.722656 -34.875 32.671875 -32.8125 C 29.617188 -30.75 28.09375 -27.601562 28.09375 -23.375 C 28.09375 -17.320312 31.566406 -14.296875 38.515625 -14.296875 C 43.492188 -14.296875 47.472656 -15.726562 50.453125 -18.59375 C 53.429688 -21.457031 54.921875 -25.257812 54.921875 -30 Z M 54.921875 -36.46875 "/></g></g></g><g fill="#ffffff" fill-opacity="1"><g transform="translate(933.665544, 608.154367)"><g><path d="M 83.9375 0 L 62.453125 0 L 62.453125 -45.984375 C 62.453125 -51.660156 61.441406 -55.914062 59.421875 -58.75 C 57.410156 -61.59375 54.195312 -63.015625 49.78125 -63.015625 C 43.769531 -63.015625 39.425781 -61.007812 36.75 -57 C 34.070312 -52.988281 32.734375 -46.332031 32.734375 -37.03125 L 32.734375 0 L 11.265625 0 L 11.265625 -78.71875 L 27.671875 -78.71875 L 30.5625 -68.65625 L 31.75 -68.65625 C 34.144531 -72.457031 37.441406 -75.332031 41.640625 -77.28125 C 45.847656 -79.226562 50.628906 -80.203125 55.984375 -80.203125 C 65.128906 -80.203125 72.070312 -77.722656 76.8125 -72.765625 C 81.5625 -67.816406 83.9375 -60.671875 83.9375 -51.328125 Z M 83.9375 0 "/></g></g></g><g clip-path="url(#64bef17408)"><path fill="#ffffff" d="M 843 431.308594 C 841.1875 431.308594 839.378906 430.617188 837.996094 429.234375 L 778.773438 370 C 776.011719 367.234375 776.011719 362.753906 778.773438 359.992188 C 781.535156 357.230469 786.015625 357.230469 788.777344 359.992188 L 848 419.230469 C 850.761719 421.992188 850.761719 426.472656 848 429.234375 C 846.621094 430.617188 844.808594 431.308594 843 431.308594 " fill-opacity="1" fill-rule="nonzero"/><path fill="#ffffff" d="M 783.777344 431.308594 C 781.964844 431.308594 780.15625 430.617188 778.773438 429.234375 C 776.011719 426.472656 776.011719 421.992188 778.773438 419.230469 L 837.996094 359.992188 C 840.757812 357.230469 845.238281 357.230469 848 359.992188 C 850.761719 362.753906 850.761719 367.234375 848 370 L 788.777344 429.234375 C 787.398438 430.617188 785.585938 431.308594 783.777344 431.308594 " fill-opacity="1" fill-rule="nonzero"/></g><g clip-path="url(#6634d00858)"><path fill="#ffffff" d="M 656.871094 245.136719 C 655.058594 245.136719 653.25 244.445312 651.867188 243.0625 L 592.644531 183.828125 C 589.882812 181.0625 589.882812 176.585938 592.644531 173.820312 C 595.40625 171.058594 599.886719 171.058594 602.648438 173.820312 L 661.871094 233.058594 C 664.632812 235.820312 664.632812 240.300781 661.871094 243.0625 C 660.488281 244.445312 658.679688 245.136719 656.871094 245.136719 " fill-opacity="1" fill-rule="nonzero"/><path fill="#ffffff" d="M 597.644531 245.136719 C 595.835938 245.136719 594.027344 244.445312 592.644531 243.0625 C 589.882812 240.300781 589.882812 235.820312 592.644531 233.058594 L 651.867188 173.820312 C 654.628906 171.058594 659.109375 171.058594 661.871094 173.820312 C 664.632812 176.585938 664.632812 181.0625 661.871094 183.828125 L 602.648438 243.0625 C 601.265625 244.445312 599.457031 245.136719 597.644531 245.136719 " fill-opacity="1" fill-rule="nonzero"/></g><g clip-path="url(#07c083d0b8)"><path fill="#ffffff" d="M 680.140625 369.402344 C 666.355469 369.402344 655.140625 380.621094 655.140625 394.410156 C 655.140625 408.203125 666.355469 419.417969 680.140625 419.417969 C 693.929688 419.417969 705.144531 408.203125 705.144531 394.410156 C 705.144531 380.621094 693.929688 369.402344 680.140625 369.402344 Z M 680.140625 433.570312 C 658.554688 433.570312 640.992188 416.003906 640.992188 394.410156 C 640.992188 372.820312 658.554688 355.253906 680.140625 355.253906 C 701.730469 355.253906 719.292969 372.820312 719.292969 394.410156 C 719.292969 416.003906 701.730469 433.570312 680.140625 433.570312 " fill-opacity="1" fill-rule="nonzero"/></g><path fill="#ffffff" d="M 797.921875 260.011719 C 796.035156 260.011719 794.175781 259.132812 792.992188 257.484375 C 791.039062 254.761719 791.664062 250.972656 794.382812 249.019531 L 825.320312 226.804688 C 828.042969 224.855469 831.832031 225.476562 833.78125 228.195312 C 835.734375 230.917969 835.113281 234.707031 832.394531 236.660156 L 801.453125 258.871094 C 800.382812 259.640625 799.148438 260.011719 797.921875 260.011719 " fill-opacity="1" fill-rule="nonzero"/><path fill="#ffffff" d="M 828.851562 237.796875 C 827.6875 237.796875 826.511719 237.464844 825.472656 236.765625 L 793.875 215.5 C 791.097656 213.628906 790.359375 209.859375 792.230469 207.082031 C 794.101562 204.300781 797.867188 203.566406 800.644531 205.433594 L 832.242188 226.703125 C 835.019531 228.570312 835.757812 232.339844 833.886719 235.117188 C 832.714844 236.859375 830.800781 237.796875 828.851562 237.796875 " fill-opacity="1" fill-rule="nonzero"/><path fill="#ffffff" d="M 680.140625 340.183594 C 676.234375 340.183594 673.066406 337.019531 673.066406 333.109375 C 673.066406 273.699219 721.394531 225.292969 780.792969 225.199219 L 823.367188 225.132812 C 823.371094 225.132812 823.375 225.132812 823.378906 225.132812 C 827.277344 225.132812 830.445312 228.289062 830.453125 232.195312 C 830.457031 236.101562 827.296875 239.273438 823.390625 239.28125 L 780.8125 239.351562 C 729.203125 239.429688 687.214844 281.488281 687.214844 333.109375 C 687.214844 337.019531 684.050781 340.183594 680.140625 340.183594 " fill-opacity="1" fill-rule="nonzero"/></svg>